<?xml version="1.0" standalone="no"?>
<!DOCTYPE svg PUBLIC "-//W3C//DTD SVG 20010904//EN"
 "http://www.w3.org/TR/2001/REC-SVG-20010904/DTD/svg10.dtd">
<svg version="1.0" xmlns="http://www.w3.org/2000/svg"
 width="298.000000pt" height="298.000000pt" viewBox="0 0 298.000000 298.000000"
 preserveAspectRatio="xMidYMid meet">
<metadata>
Created by potrace 1.11, written by Peter Selinger 2001-2013
</metadata>
<g transform="translate(0.000000,298.000000) scale(0.100000,-0.100000)"
fill="#000000" stroke="none">
<path d="M1330 2918 c0 -12 -25 -75 -55 -140 -40 -86 -55 -130 -55 -162 0 -53
14 -67 78 -74 47 -5 62 -15 62 -41 0 -10 -10 -12 -43 -7 -40 6 -44 5 -55 -19
-19 -41 -15 -76 17 -140 25 -51 66 -193 59 -201 -2 -1 -37 -5 -78 -9 l-75 -6
-70 88 c-38 48 -80 108 -91 132 l-22 44 -22 -43 c-35 -68 -61 -150 -68 -209
l-7 -55 -116 -22 c-63 -13 -137 -32 -164 -44 l-48 -20 7 37 c18 96 17 117 -4
151 -22 35 -20 35 -87 16 -19 -5 -23 -2 -23 15 0 12 8 24 17 27 127 41 130 85
17 224 -75 93 -104 138 -104 165 -2 69 -95 -150 -106 -249 -11 -95 30 -146
117 -146 36 0 40 -2 37 -22 -3 -21 -10 -24 -83 -31 -65 -6 -83 -12 -98 -30
-30 -39 -30 -62 1 -133 17 -38 33 -88 37 -111 7 -42 6 -44 -49 -94 -73 -67
-94 -103 -111 -194 -28 -143 -16 -228 33 -250 21 -9 22 -14 22 -158 l0 -148
-29 -25 c-28 -23 -29 -29 -36 -136 l-8 -113 -45 -50 c-156 -173 -88 -341 196
-484 188 -95 456 -161 817 -203 144 -17 646 -17 790 0 598 69 983 222 1076
426 48 105 -3 232 -127 316 l-44 31 0 63 c0 35 7 83 15 106 21 60 19 103 -6
126 -18 17 -20 27 -16 124 2 58 11 129 21 160 10 33 18 95 19 155 1 83 -2 108
-19 146 -40 85 -120 157 -218 194 l-48 19 5 65 c3 36 9 85 13 107 6 38 3 45
-27 77 l-34 35 -74 -9 c-61 -8 -77 -7 -89 5 -20 20 -9 32 37 40 126 20 98 187
-62 371 l-34 39 -1 -39 c0 -27 -17 -75 -50 -145 -65 -137 -72 -171 -40 -203
15 -15 43 -28 69 -32 40 -7 58 -18 59 -37 0 -5 -20 -8 -45 -8 -34 0 -47 -5
-55 -19 -14 -27 -12 -81 5 -111 8 -14 14 -28 15 -31 0 -4 -45 7 -100 24 -80
24 -100 34 -100 49 0 32 -37 90 -110 173 -39 44 -74 92 -77 108 -3 15 -9 29
-13 32 -16 10 -65 -123 -95 -260 -1 -6 -30 -9 -68 -7 l-66 4 -7 64 c-3 36 -3
84 0 107 20 123 20 131 -10 166 l-28 33 -84 -7 c-66 -5 -86 -4 -93 6 -14 23
-11 26 32 33 23 4 51 17 66 32 50 50 18 163 -85 301 -51 67 -62 75 -62 41z
m73 -95 c93 -143 102 -226 26 -252 -18 -6 -36 -11 -40 -11 -4 0 -5 32 -2 72 5
53 3 69 -5 64 -7 -4 -12 -25 -12 -46 0 -65 -14 -90 -53 -90 -18 0 -43 7 -56
16 -32 23 -25 64 29 178 23 49 46 100 51 113 5 12 11 23 13 23 2 0 24 -30 49
-67z m-927 -363 c71 -87 84 -109 84 -145 0 -20 -8 -29 -36 -41 -53 -22 -66
-15 -91 46 -12 30 -27 56 -33 58 -14 5 -8 -20 21 -85 l18 -43 -34 0 c-21 0
-44 9 -62 24 -24 21 -27 30 -26 80 2 58 12 98 46 179 20 47 20 48 35 25 9 -13
44 -57 78 -98z m1883 36 c79 -121 90 -201 31 -231 -54 -28 -60 -23 -53 50 4
46 2 65 -6 65 -6 0 -11 -15 -11 -32 0 -18 -5 -50 -11 -71 -10 -37 -11 -38 -47
-31 -90 16 -94 48 -22 198 28 58 50 110 50 115 0 27 24 5 69 -63z m-889 -26
c-8 -5 -24 -10 -35 -10 -17 0 -17 2 -5 10 8 5 24 10 35 10 17 0 17 -2 5 -10z
m-97 -7 c-13 -2 -33 -2 -45 0 -13 2 -3 4 22 4 25 0 35 -2 23 -4z m-8 -66 c38
-38 48 -69 69 -218 20 -135 21 -213 2 -228 -26 -22 -45 25 -50 124 -8 134 -25
201 -63 256 -32 46 -41 78 -26 92 14 14 36 6 68 -26z m558 -170 c102 -120 109
-157 32 -186 -36 -14 -39 -14 -56 8 -10 13 -24 41 -30 62 -7 21 -16 39 -21 39
-12 0 -10 -15 12 -72 11 -29 20 -54 20 -55 0 -2 -11 -3 -25 -3 -38 0 -82 26
-89 52 -14 55 1 152 39 241 l16 39 22 -29 c12 -15 48 -59 80 -96z m-913 85 c0
-5 31 -47 69 -94 71 -87 101 -136 101 -162 0 -19 -36 -44 -76 -52 -32 -6 -37
1 -75 101 -6 17 -13 24 -16 17 -4 -11 9 -58 32 -114 8 -21 -15 -24 -63 -7 -40
14 -56 55 -49 122 6 58 54 197 68 197 5 0 9 -4 9 -8z m-490 -141 c-26 -14 -70
-22 -70 -12 0 5 15 12 33 14 17 2 37 4 42 5 6 1 3 -2 -5 -7z m1905 -11 c-3 -5
-18 -10 -33 -9 -24 0 -25 1 -7 9 28 12 47 12 40 0z m-2009 -13 c4 -4 -4 -7
-19 -7 -14 0 -29 5 -32 10 -7 12 39 9 51 -3z m1907 6 c-13 -2 -35 -2 -50 0
-16 2 -5 4 22 4 28 0 40 -2 28 -4z m-25 -53 c44 -27 67 -81 86 -205 32 -203
22 -304 -23 -248 -14 16 -19 47 -24 125 -6 116 -29 213 -56 243 -29 32 -43 64
-36 85 8 25 12 25 53 0z m-1954 -11 c41 -32 57 -73 77 -198 22 -132 25 -256 7
-267 -26 -17 -45 33 -51 138 -8 128 -28 205 -67 259 -29 41 -37 69 -23 82 11
12 30 8 57 -14z m1400 -23 c19 -46 51 -66 108 -66 34 0 48 -4 48 -14 0 -24
-23 -33 -95 -39 -56 -4 -73 -9 -87 -27 -33 -41 -33 -68 1 -139 31 -65 63 -198
77 -318 3 -35 12 -70 18 -79 29 -39 191 -20 236 28 24 26 26 80 5 131 -16 40
-23 237 -10 325 7 46 5 56 -16 87 -16 23 -29 33 -39 29 -8 -3 -27 -10 -42 -14
-25 -8 -28 -6 -28 15 0 18 7 25 33 30 17 4 37 11 43 17 13 10 231 -56 250 -75
20 -21 44 -143 44 -221 0 -91 20 -121 89 -137 54 -12 148 4 174 30 17 17 18
25 7 113 -17 133 -16 134 45 104 61 -31 129 -95 158 -150 19 -35 22 -55 20
-143 -1 -56 -7 -120 -13 -142 -11 -43 -50 -81 -84 -81 -38 0 -97 -21 -118 -42
-15 -15 -19 -28 -14 -50 3 -17 1 -48 -4 -70 -23 -83 -122 -102 -202 -38 -51
41 -117 51 -169 25 -56 -28 -115 -81 -148 -132 -61 -95 -75 -97 -126 -14 -65
109 -119 134 -186 88 -18 -12 -68 -67 -109 -121 -78 -102 -121 -136 -175 -136
-66 0 -113 50 -169 180 -15 36 -37 73 -47 82 -26 22 -144 48 -221 48 -67 0
-131 -23 -158 -55 -9 -10 -14 -39 -15 -72 0 -43 -4 -58 -18 -67 -26 -16 -43
11 -51 79 -13 115 -53 169 -145 200 -77 25 -91 13 -105 -88 -7 -51 -21 -67
-60 -67 -58 0 -68 16 -77 127 -5 56 -13 112 -18 126 -14 37 -57 62 -105 60
-59 -1 -76 18 -76 85 0 140 35 239 106 302 45 39 47 36 59 -79 9 -93 25 -111
98 -111 149 0 210 69 162 183 -8 21 -15 67 -15 105 l0 70 53 22 c28 13 102 33
162 45 l110 22 25 -30 c21 -24 36 -30 85 -36 l60 -6 -21 -21 c-18 -18 -34 -22
-85 -23 -56 0 -67 -4 -86 -26 -37 -42 -38 -68 -4 -142 29 -65 71 -268 71 -347
0 -40 9 -52 43 -65 36 -14 63 -14 126 0 95 20 122 77 86 179 -20 57 -20 219 0
285 17 55 13 85 -16 126 -17 24 -23 27 -45 19 -14 -6 -34 -10 -44 -10 -30 0
-13 38 21 45 41 9 79 43 79 69 0 19 7 25 38 30 20 3 52 6 70 6 32 0 32 0 32
-50 0 -63 20 -103 59 -120 43 -17 160 -9 195 14 28 18 28 19 21 92 l-7 74 61
0 c60 0 61 -1 75 -34z m216 -125 c-25 -14 -76 -24 -65 -13 10 10 38 19 65 21
13 0 13 -1 0 -8z m-100 -21 c0 -5 -9 -10 -19 -10 -11 0 -23 5 -26 10 -4 6 5
10 19 10 14 0 26 -4 26 -10z m-721 -4 c-10 -10 -79 -24 -79 -16 0 8 22 14 69
19 8 0 12 -1 10 -3z m-118 -25 c-12 -8 -51 -4 -51 5 0 2 15 4 33 4 22 0 28 -3
18 -9z m775 -30 c17 -10 38 -34 47 -53 21 -44 46 -186 54 -303 5 -75 3 -93
-10 -103 -28 -23 -48 25 -52 120 -5 119 -30 219 -66 264 -27 35 -37 73 -22 87
9 10 15 9 49 -12z m-823 -40 c36 -33 53 -93 73 -260 18 -142 15 -191 -12 -191
-23 0 -41 57 -43 133 -2 104 -26 205 -61 253 -28 39 -38 82 -24 97 9 9 37 -4
67 -32z m-689 -473 c32 -14 46 -60 46 -151 0 -108 37 -157 118 -157 60 0 88
30 97 104 4 31 10 58 14 61 14 8 86 -23 113 -49 26 -25 31 -44 55 -176 6 -32
15 -48 34 -59 59 -33 109 16 109 107 0 47 1 50 40 67 32 14 56 17 122 12 46
-3 101 -12 123 -19 36 -13 44 -22 85 -104 60 -121 74 -140 124 -164 51 -24 84
-25 134 -5 48 21 73 45 137 130 110 148 153 168 203 94 70 -103 88 -124 114
-127 40 -5 64 12 101 71 88 136 191 181 272 117 121 -96 266 -38 267 109 1 59
9 68 66 77 26 4 57 11 70 15 22 8 22 8 22 -79 l0 -87 -67 -43 c-91 -59 -328
-173 -435 -211 -191 -67 -589 -131 -812 -131 -222 0 -343 19 -666 103 -74 19
-160 40 -191 46 -39 8 -86 31 -150 72 -51 33 -112 64 -134 70 -22 6 -46 13
-52 15 -10 2 -13 41 -13 147 0 79 3 147 7 150 9 10 18 9 47 -5z m2496 -288 c0
-16 -9 -53 -19 -82 -10 -29 -22 -69 -25 -87 -4 -19 -13 -46 -22 -59 -14 -21
-22 -23 -77 -21 -84 4 -100 -4 -137 -61 -48 -74 -51 -76 -114 -50 -96 40 -158
7 -187 -102 -13 -46 -15 -48 -83 -77 -103 -43 -133 -51 -188 -51 -59 0 -78 9
-139 66 -47 42 -123 74 -178 74 -54 -1 -106 -35 -129 -83 -25 -54 -56 -77
-110 -84 -59 -8 -107 13 -150 63 -41 50 -87 68 -202 79 -36 3 -91 11 -122 17
-54 10 -58 9 -92 -17 -40 -31 -117 -45 -140 -26 -8 6 -17 27 -20 45 -9 49 -77
120 -148 155 -48 24 -74 31 -121 31 -54 0 -62 -3 -94 -35 -41 -41 -51 -42 -88
-13 l-28 22 7 115 c4 63 10 119 13 124 3 5 31 7 63 5 49 -4 70 -12 151 -64
107 -69 130 -79 214 -94 33 -5 134 -30 225 -55 225 -61 324 -76 540 -82 166
-4 204 -2 365 22 239 35 394 68 515 110 121 42 317 136 425 203 44 28 83 48
87 45 5 -2 8 -17 8 -33z m-49 -448 c-80 -157 -411 -288 -866 -343 -145 -18
-595 -18 -740 -1 -450 55 -786 188 -865 343 -26 50 -25 66 5 73 14 4 25 11 25
16 0 27 41 50 90 50 97 0 210 -82 232 -167 6 -24 20 -50 31 -58 34 -24 98 -18
162 14 53 27 63 29 109 21 28 -5 87 -13 132 -19 97 -12 123 -23 149 -63 30
-47 88 -73 161 -73 75 0 124 30 153 91 25 53 42 65 94 71 56 7 134 -26 177
-74 78 -85 186 -85 376 2 63 29 74 38 74 59 0 58 46 126 85 126 13 0 44 -9 70
-21 61 -27 93 -15 136 52 39 62 51 68 114 62 36 -4 61 -1 81 10 l29 15 3 -73
c2 -58 -1 -83 -17 -113z m154 76 c186 -218 -137 -460 -747 -562 -244 -41 -360
-50 -648 -50 -288 0 -404 9 -648 50 -614 102 -936 347 -744 564 l38 43 31 -23
c21 -15 35 -37 42 -64 49 -196 397 -350 926 -411 151 -17 522 -20 676 -5 309
31 536 87 724 180 175 87 244 165 253 290 l5 69 28 -20 c15 -11 44 -38 64 -61z"/>
</g>
</svg>
